<svg width="256" height="256" version="1.1" viewBox="0 0 67.733 67.733" xml:space="preserve" xmlns="http://www.w3.org/2000/svg"><rect width="67.733" height="67.733" fill="#fff" fill-rule="evenodd" opacity=".99" stroke-linecap="round" stroke-width="4.2333" style="-inkscape-stroke:none;paint-order:stroke fill markers"/><path d="m23.292 14.886h-12.05c-2.0902 0-3.7846 1.6944-3.7846 3.7846v37.846c0 2.0902 1.6944 3.7846 3.7846 3.7846h45.415c2.0902 0 3.7846-1.6944 3.7846-3.7846v-37.846c0-2.0902-1.6944-3.7846-3.7846-3.7846h-12.05c-3.6282-9.8774-17.708-9.8177-21.315 0zm10.658 0c4.9487 0 4.9487 7.5692 0 7.5692-5.0461 0-5.0461-7.5692 0-7.5692zm-18.923 7.5692h7.5692v7.5692h22.708v-7.5692h7.5692v30.277h-37.846zm3.7846 9.7018v7.5692h7.5692v-7.5692zm11.354 0v7.5692h7.5692v-7.5692zm11.354 0v7.5692h7.5692v-7.5692zm-22.708 11.354v7.5692h7.5692v-7.5692zm11.354 0v7.5692h7.5692v-7.5692zm11.354 0v7.5692h7.5692v-7.5692z" fill="#5a5a5a" stroke-width=".26458"/></svg>
