<?xml version="1.0" encoding="UTF-8" standalone="no"?>
<svg
   width="256"
   height="256"
   version="1.1"
   viewBox="0 0 67.733 67.733"
   xml:space="preserve"
   id="svg1"
   sodipodi:docname="icon.svg"
   inkscape:version="1.4 (86a8ad7, 2024-10-11)"
   xmlns:inkscape="http://www.inkscape.org/namespaces/inkscape"
   xmlns:sodipodi="http://sodipodi.sourceforge.net/DTD/sodipodi-0.dtd"
   xmlns="http://www.w3.org/2000/svg"
   xmlns:svg="http://www.w3.org/2000/svg"><defs
     id="defs1" /><sodipodi:namedview
     id="namedview1"
     pagecolor="#505050"
     bordercolor="#eeeeee"
     borderopacity="1"
     inkscape:showpageshadow="0"
     inkscape:pageopacity="0"
     inkscape:pagecheckerboard="0"
     inkscape:deskcolor="#505050"
     inkscape:zoom="0.53710938"
     inkscape:cx="76.334545"
     inkscape:cy="-14.894545"
     inkscape:window-width="1920"
     inkscape:window-height="991"
     inkscape:window-x="-9"
     inkscape:window-y="-9"
     inkscape:window-maximized="1"
     inkscape:current-layer="svg1" /><rect
     width="67.733"
     height="67.733"
     fill="#fff"
     fill-rule="evenodd"
     opacity=".99"
     stroke-linecap="round"
     stroke-width="4.2333"
     style="-inkscape-stroke:none;paint-order:stroke fill markers"
     id="rect1" /><path
     d="m 18.811679,43.510825 v 7.569527 h 7.56901 v -7.569527 z"
     style="fill:#994ff3;stroke-width:0.26458;fill-opacity:1"
     id="path15" /><path
     d="m 30.165452,43.510825 v 7.569527 h 7.569527 v -7.569527 z"
     style="fill:#2688c2;stroke-width:0.26458;fill-opacity:1"
     id="path14" /><path
     d="m 41.519742,43.510825 v 7.569527 h 7.56901 v -7.569527 z"
     style="fill:#289383;stroke-width:0.26458;fill-opacity:1"
     id="path13" /><path
     d="m 41.519742,32.157052 v 7.56901 h 7.56901 v -7.56901 z"
     style="fill:#778a23;stroke-width:0.26458;fill-opacity:1"
     id="path12" /><path
     d="m 30.165452,32.157052 v 7.56901 h 7.569527 v -7.56901 z"
     style="fill:#b66c21;stroke-width:0.26458;fill-opacity:1"
     id="path11" /><path
     d="m 18.811679,32.157052 v 7.56901 h 7.56901 v -7.56901 z"
     style="fill:#de2a7c;stroke-width:0.26458;fill-opacity:1"
     id="path10" /><path
     d="M 33.94143,7.5002805 C 29.51708,7.507743 25.095504,9.9769898 23.292004,14.88584 H 11.242153 c -2.0902005,0 -3.7847638,1.694563 -3.7847638,3.784763 v 37.846083 c 0,2.0902 1.6945633,3.784763 3.7847638,3.784763 h 45.415092 c 2.0902,0 3.784246,-1.694563 3.784246,-3.784763 V 18.670603 c 0,-2.0902 -1.694046,-3.784763 -3.784246,-3.784763 H 44.606877 C 42.792777,9.9471398 38.36578,7.492818 33.94143,7.5002805 Z m 0.0088,7.3855595 c 4.9487,0 4.9487,7.569526 0,7.569526 -5.0461,0 -5.0461,-7.569526 0,-7.569526 z m -18.923299,7.569526 h 7.569526 v 7.56901 h 22.707546 v -7.56901 h 7.569527 V 52.732439 H 15.027433 Z"
     style="fill:#5a5a5a;stroke-width:0.26458"
     id="path9" /></svg>
