<svg xmlns="http://www.w3.org/2000/svg" xml:space="preserve" width="256" height="256" viewBox="0 0 67.733 67.733"><path fill="#fff" fill-rule="evenodd" d="M0 0h67.733v67.733H0z" opacity=".99" style="-inkscape-stroke:none;paint-order:stroke fill markers"/><path d="M18.812 43.51v7.57h7.569v-7.57z" style="fill:#994ff3;stroke-width:.26458;fill-opacity:1"/><path d="M30.165 43.51v7.57h7.57v-7.57z" style="fill:#2688c2;stroke-width:.26458;fill-opacity:1"/><path d="M41.52 43.51v7.57h7.569v-7.57z" style="fill:#289383;stroke-width:.26458;fill-opacity:1"/><path d="M41.52 32.157v7.57h7.569v-7.57z" style="fill:#778a23;stroke-width:.26458;fill-opacity:1"/><path d="M30.165 32.157v7.57h7.57v-7.57z" style="fill:#b66c21;stroke-width:.26458;fill-opacity:1"/><path d="M18.812 32.157v7.57h7.569v-7.57z" style="fill:#de2a7c;stroke-width:.26458;fill-opacity:1"/><path d="M33.941 7.5c-4.424.008-8.845 2.477-10.649 7.386h-12.05a3.785 3.785 0 0 0-3.785 3.785v37.846a3.785 3.785 0 0 0 3.785 3.784h45.415a3.784 3.784 0 0 0 3.784-3.784V18.67a3.784 3.784 0 0 0-3.784-3.785h-12.05C42.793 9.947 38.366 7.493 33.94 7.5Zm.01 7.386c4.948 0 4.948 7.57 0 7.57-5.047 0-5.047-7.57 0-7.57zm-18.924 7.57h7.57v7.568h22.707v-7.569h7.57v30.277H15.027Z" style="fill:#5a5a5a;stroke-width:.26458"/></svg>